<?xml version="1.0" standalone="no"?>
<!DOCTYPE svg PUBLIC "-//W3C//DTD SVG 20010904//EN"
 "http://www.w3.org/TR/2001/REC-SVG-20010904/DTD/svg10.dtd">
<svg version="1.0" xmlns="http://www.w3.org/2000/svg"
 width="1056.000000pt" height="992.000000pt" viewBox="0 0 1056.000000 992.000000"
 preserveAspectRatio="xMidYMid meet">
<metadata>
Created by potrace 1.16, written by Peter Selinger 2001-2019
</metadata>
<g transform="translate(0.000000,992.000000) scale(0.100000,-0.100000)"
fill="#000000" stroke="none">
<path d="M5197 7339 c-90 -21 -166 -85 -209 -176 -17 -36 -23 -66 -23 -118 0
-111 19 -160 89 -231 34 -33 68 -63 76 -66 12 -4 15 -29 17 -129 4 -190 22
-1089 29 -1416 7 -290 7 -293 28 -293 12 0 53 -9 91 -20 38 -11 73 -20 76 -20
3 0 9 154 12 343 29 1612 26 1521 49 1537 101 74 150 151 162 252 8 59 -6 124
-39 187 -62 120 -214 184 -358 150z"/>
<path d="M4285 7033 c-41 -4 -138 -32 -210 -61 -53 -21 -487 -241 -499 -253
-6 -5 -18 -9 -27 -9 -10 0 -19 -4 -21 -8 -1 -4 -32 -20 -68 -36 -36 -16 -83
-37 -105 -47 -169 -77 -413 -154 -670 -210 -55 -12 -103 -23 -106 -25 -16 -9
21 -84 62 -125 66 -67 135 -91 277 -97 110 -4 112 -5 112 -28 0 -44 30 -99 69
-126 76 -54 220 -73 331 -44 30 8 57 12 60 9 3 -2 5 -18 6 -34 4 -67 73 -114
207 -140 57 -11 79 -10 145 3 42 8 84 18 92 22 12 5 21 -4 33 -33 10 -22 27
-43 37 -46 11 -4 20 -11 20 -16 0 -5 10 -9 23 -9 13 0 27 -4 33 -9 5 -6 39
-11 76 -12 61 -2 74 2 160 44 117 59 188 77 303 77 88 0 223 -27 251 -51 15
-12 49 2 132 55 l62 40 -1 126 c-1 69 -4 190 -8 270 l-6 144 -44 9 c-106 21
-168 97 -202 245 -28 126 -61 195 -125 259 -62 63 -133 97 -231 112 -71 11
-89 11 -168 4z"/>
<path d="M6087 7029 c-117 -23 -220 -95 -277 -194 -18 -31 -39 -92 -51 -147
-11 -51 -28 -111 -38 -133 -33 -75 -105 -132 -181 -144 l-35 -6 -8 -270 -7
-269 27 -22 c16 -12 54 -37 86 -54 l59 -32 48 21 c108 46 272 55 402 21 53
-14 147 -59 171 -81 26 -24 61 -28 134 -18 93 13 173 59 173 100 0 29 19 32
68 13 89 -36 270 -18 350 34 30 19 52 63 52 102 0 35 13 38 80 14 67 -24 214
-13 281 21 76 38 100 69 103 134 l1 36 115 6 c121 5 191 25 247 69 40 31 83
98 83 130 0 25 -5 28 -57 39 -103 22 -377 91 -398 100 -11 5 -67 26 -125 46
-154 55 -163 59 -420 189 -498 252 -521 263 -657 291 -76 16 -154 17 -226 4z"/>
<path d="M4493 5716 c-178 -44 -326 -185 -369 -356 -19 -77 -15 -222 8 -288
25 -68 88 -151 158 -207 144 -117 351 -197 725 -284 150 -35 319 -80 337 -91
10 -5 22 -10 28 -10 16 0 123 -52 160 -79 142 -100 170 -241 72 -369 -41 -54
-141 -118 -268 -173 -225 -95 -331 -153 -407 -219 -98 -87 -147 -188 -147
-306 0 -148 57 -253 197 -362 l42 -33 54 43 c30 24 62 48 72 53 16 10 11 17
-42 68 -74 71 -103 126 -103 196 0 130 106 222 365 316 172 62 269 110 361
179 162 121 239 294 215 487 -27 212 -197 371 -506 473 -44 15 -186 54 -315
87 -240 61 -268 69 -403 114 -171 57 -285 132 -327 216 -41 80 -17 180 56 238
35 28 75 27 170 -6 68 -22 97 -26 204 -27 114 -1 129 1 174 24 58 29 71 47 62
83 -8 35 -118 146 -176 180 -112 64 -265 85 -397 53z"/>
<path d="M5835 5723 c-101 -22 -190 -70 -272 -146 -107 -98 -88 -165 55 -196
104 -22 208 -12 370 34 59 17 66 17 97 2 49 -23 87 -86 93 -152 4 -45 0 -61
-22 -99 -68 -116 -215 -189 -567 -280 -123 -32 -162 -46 -126 -46 35 0 248
-100 325 -152 50 -34 51 -34 190 18 163 60 261 120 348 211 148 155 170 372
58 563 -98 167 -255 252 -458 249 -39 -1 -80 -3 -91 -6z"/>
<path d="M4728 4523 c-151 -166 -166 -401 -36 -591 43 -62 138 -151 191 -179
27 -14 31 -13 70 14 23 15 77 46 121 69 l79 41 -64 43 c-137 91 -199 176 -199
271 0 28 7 67 17 86 24 51 100 124 161 155 29 14 49 29 44 32 -5 3 -47 14 -93
25 -46 11 -120 29 -164 40 -101 26 -96 26 -127 -6z"/>
<path d="M5201 4170 c2 -148 6 -270 10 -270 3 0 38 14 78 31 l71 32 0 218 c0
204 -1 219 -18 219 -10 0 -22 4 -27 8 -11 9 -85 32 -104 32 -9 0 -12 -66 -10
-270z"/>
<path d="M5609 3610 c-8 -5 -55 -25 -104 -45 -49 -19 -91 -37 -93 -40 -2 -2
21 -29 52 -59 31 -30 63 -71 71 -90 20 -47 19 -120 -2 -164 -26 -55 -113 -134
-203 -182 -202 -111 -298 -189 -348 -284 -22 -43 -27 -64 -27 -131 0 -59 5
-89 19 -114 l18 -35 22 65 c50 150 95 193 321 304 195 97 289 163 352 249 68
92 86 149 84 261 -2 88 -40 178 -101 243 -34 35 -37 36 -61 22z"/>
<path d="M5268 3477 l-48 -21 0 -193 c0 -106 3 -193 8 -193 4 0 31 16 60 35
l52 36 0 179 c0 138 -3 180 -12 179 -7 -1 -34 -10 -60 -22z"/>
<path d="M5445 2791 c-27 -14 -52 -27 -54 -28 -2 -2 18 -24 45 -51 57 -56 83
-102 109 -190 l19 -63 19 38 c30 57 33 147 8 213 -21 57 -63 111 -84 109 -7
-1 -34 -13 -62 -28z"/>
<path d="M5273 2713 l-33 -17 0 -126 c0 -116 2 -129 21 -146 21 -19 21 -18 40
5 17 20 19 40 19 162 0 76 -3 139 -7 138 -5 0 -23 -8 -40 -16z"/>
</g>
</svg>
